<svg width="1201" height="249" viewBox="0 0 1201 249" fill="none" xmlns="http://www.w3.org/2000/svg">
<path d="M1119.1 247.75C1102.85 247.75 1088.59 243.883 1076.33 236.148C1064.14 228.414 1054.61 217.594 1047.73 203.688C1040.94 189.781 1037.54 173.531 1037.54 154.938C1037.54 136.187 1040.94 119.82 1047.73 105.836C1054.61 91.8516 1064.14 80.9922 1076.33 73.2578C1088.59 65.5234 1102.85 61.6562 1119.1 61.6562C1135.35 61.6562 1149.57 65.5234 1161.76 73.2578C1174.02 80.9922 1183.55 91.8516 1190.35 105.836C1197.22 119.82 1200.66 136.187 1200.66 154.938C1200.66 173.531 1197.22 189.781 1190.35 203.688C1183.55 217.594 1174.02 228.414 1161.76 236.148C1149.57 243.883 1135.35 247.75 1119.1 247.75ZM1119.1 222.906C1131.44 222.906 1141.6 219.742 1149.57 213.414C1157.54 207.086 1163.44 198.766 1167.26 188.453C1171.09 178.141 1173.01 166.969 1173.01 154.938C1173.01 142.906 1171.09 131.695 1167.26 121.305C1163.44 110.914 1157.54 102.516 1149.57 96.1094C1141.6 89.7031 1131.44 86.5 1119.1 86.5C1106.76 86.5 1096.6 89.7031 1088.63 96.1094C1080.66 102.516 1074.76 110.914 1070.94 121.305C1067.11 131.695 1065.19 142.906 1065.19 154.938C1065.19 166.969 1067.11 178.141 1070.94 188.453C1074.76 198.766 1080.66 207.086 1088.63 213.414C1096.6 219.742 1106.76 222.906 1119.1 222.906Z" fill="black"/>
<path d="M934.764 247.75C917.889 247.75 903.357 243.766 891.17 235.797C878.982 227.828 869.607 216.852 863.045 202.867C856.482 188.883 853.201 172.906 853.201 154.938C853.201 136.656 856.561 120.523 863.279 106.539C870.076 92.4766 879.529 81.5 891.639 73.6094C903.826 65.6406 918.045 61.6562 934.295 61.6562C946.951 61.6562 958.357 64 968.514 68.6875C978.67 73.375 986.99 79.9375 993.475 88.375C999.959 96.8125 1003.98 106.656 1005.54 117.906H977.889C975.779 109.703 971.092 102.437 963.826 96.1094C956.639 89.7031 946.951 86.5 934.764 86.5C923.982 86.5 914.529 89.3125 906.404 94.9375C898.357 100.484 892.068 108.336 887.537 118.492C883.084 128.57 880.857 140.406 880.857 154C880.857 167.906 883.045 180.016 887.42 190.328C891.873 200.641 898.123 208.648 906.17 214.352C914.295 220.055 923.826 222.906 934.764 222.906C941.951 222.906 948.475 221.656 954.334 219.156C960.193 216.656 965.154 213.063 969.217 208.375C973.279 203.687 976.17 198.062 977.889 191.5H1005.54C1003.98 202.125 1000.12 211.695 993.943 220.211C987.85 228.648 979.764 235.367 969.686 240.367C959.686 245.289 948.045 247.75 934.764 247.75Z" fill="black"/>
<path d="M821.971 64V87.4375H728.689V64H821.971ZM755.877 20.875H783.533V192.438C783.533 200.25 784.666 206.109 786.932 210.016C789.275 213.844 792.244 216.422 795.838 217.75C799.51 219 803.377 219.625 807.439 219.625C810.486 219.625 812.986 219.469 814.939 219.156C816.893 218.766 818.455 218.453 819.627 218.219L825.252 243.062C823.377 243.766 820.76 244.469 817.4 245.172C814.041 245.953 809.783 246.344 804.627 246.344C796.814 246.344 789.158 244.664 781.658 241.305C774.236 237.945 768.064 232.828 763.143 225.953C758.299 219.078 755.877 210.406 755.877 199.938V20.875Z" fill="black"/>
<path d="M609.627 244V64H636.346V91.1875H638.221C641.502 82.2813 647.439 75.0547 656.033 69.5078C664.627 63.9609 674.314 61.1875 685.096 61.1875C687.127 61.1875 689.666 61.2266 692.713 61.3047C695.76 61.3828 698.064 61.5 699.627 61.6563V89.7813C698.689 89.5469 696.541 89.1953 693.182 88.7266C689.9 88.1797 686.424 87.9063 682.752 87.9063C674.002 87.9063 666.189 89.7422 659.314 93.4141C652.518 97.0078 647.127 102.008 643.143 108.414C639.236 114.742 637.283 121.969 637.283 130.094V244H609.627Z" fill="black"/>
<path d="M485.848 247.75C469.598 247.75 455.34 243.883 443.074 236.148C430.887 228.414 421.355 217.594 414.48 203.688C407.684 189.781 404.285 173.531 404.285 154.938C404.285 136.187 407.684 119.82 414.48 105.836C421.355 91.8516 430.887 80.9922 443.074 73.2578C455.34 65.5234 469.598 61.6562 485.848 61.6562C502.098 61.6562 516.316 65.5234 528.504 73.2578C540.77 80.9922 550.301 91.8516 557.098 105.836C563.973 119.82 567.41 136.187 567.41 154.938C567.41 173.531 563.973 189.781 557.098 203.688C550.301 217.594 540.77 228.414 528.504 236.148C516.316 243.883 502.098 247.75 485.848 247.75ZM485.848 222.906C498.191 222.906 508.348 219.742 516.316 213.414C524.285 207.086 530.184 198.766 534.012 188.453C537.84 178.141 539.754 166.969 539.754 154.938C539.754 142.906 537.84 131.695 534.012 121.305C530.184 110.914 524.285 102.516 516.316 96.1094C508.348 89.7031 498.191 86.5 485.848 86.5C473.504 86.5 463.348 89.7031 455.379 96.1094C447.41 102.516 441.512 110.914 437.684 121.305C433.855 131.695 431.941 142.906 431.941 154.938C431.941 166.969 433.855 178.141 437.684 188.453C441.512 198.766 447.41 207.086 455.379 213.414C463.348 219.742 473.504 222.906 485.848 222.906Z" fill="black"/>
<path d="M245.408 135.719V244H217.752V4H245.408V92.125H247.752C251.971 82.8281 258.299 75.4453 266.736 69.9766C275.252 64.4297 286.58 61.6563 300.721 61.6563C312.986 61.6563 323.729 64.1172 332.947 69.0391C342.166 73.8828 349.314 81.3438 354.393 91.4219C359.549 101.422 362.127 114.156 362.127 129.625V244H334.471V131.5C334.471 117.203 330.76 106.148 323.338 98.3359C315.994 90.4453 305.799 86.5 292.752 86.5C283.689 86.5 275.564 88.4141 268.377 92.2422C261.268 96.0703 255.643 101.656 251.502 109C247.439 116.344 245.408 125.25 245.408 135.719Z" fill="black"/>
<path d="M142.312 64C140.906 52.125 135.203 42.9063 125.203 36.3438C115.203 29.7813 102.938 26.5 88.4062 26.5C77.7813 26.5 68.4844 28.2188 60.5156 31.6562C52.625 35.0938 46.4531 39.8203 42 45.8359C37.625 51.8516 35.4375 58.6875 35.4375 66.3437C35.4375 72.75 36.9609 78.2578 40.0078 82.8672C43.1328 87.3984 47.1172 91.1875 51.9609 94.2344C56.8047 97.2031 61.8828 99.6641 67.1953 101.617C72.5078 103.492 77.3906 105.016 81.8438 106.188L106.219 112.75C112.469 114.391 119.422 116.656 127.078 119.547C134.812 122.438 142.195 126.383 149.227 131.383C156.336 136.305 162.195 142.633 166.805 150.367C171.414 158.102 173.719 167.594 173.719 178.844C173.719 191.812 170.32 203.531 163.523 214C156.805 224.469 146.961 232.789 133.992 238.961C121.102 245.133 105.438 248.219 87 248.219C69.8125 248.219 54.9297 245.445 42.3516 239.898C29.8516 234.352 20.0078 226.617 12.8203 216.695C5.71094 206.773 1.6875 195.25 0.75 182.125H30.75C31.5313 191.187 34.5781 198.687 39.8906 204.625C45.2813 210.484 52.0781 214.859 60.2813 217.75C68.5625 220.562 77.4688 221.969 87 221.969C98.0938 221.969 108.055 220.172 116.883 216.578C125.711 212.906 132.703 207.828 137.859 201.344C143.016 194.781 145.594 187.125 145.594 178.375C145.594 170.406 143.367 163.922 138.914 158.922C134.461 153.922 128.602 149.859 121.336 146.734C114.07 143.609 106.219 140.875 97.7812 138.531L68.25 130.094C49.5 124.703 34.6563 117.008 23.7188 107.008C12.7813 97.0078 7.3125 83.9219 7.3125 67.75C7.3125 54.3125 10.9453 42.5937 18.2109 32.5938C25.5547 22.5156 35.3984 14.7031 47.7422 9.15625C60.1641 3.53125 74.0312 0.71875 89.3438 0.71875C104.812 0.71875 118.562 3.49219 130.594 9.03906C142.625 14.5078 152.156 22.0078 159.188 31.5391C166.297 41.0703 170.047 51.8906 170.438 64H142.312Z" fill="black"/>
</svg>
